<svg width="32" height="33" viewBox="0 0 32 33" fill="none" xmlns="http://www.w3.org/2000/svg">
<path d="M10.404 7.83331C11.1894 7.83331 11.896 7.90131 12.544 8.03998C13.188 8.17731 13.7374 8.40398 14.2014 8.71731C14.6587 9.03065 15.016 9.44665 15.2734 9.96931C15.5227 10.4853 15.6467 11.1306 15.6467 11.8933C15.6467 12.72 15.46 13.4106 15.0854 13.9613C14.708 14.5133 14.152 14.9653 13.4107 15.3146C14.42 15.6066 15.168 16.1173 15.664 16.8426C16.1627 17.5746 16.4067 18.4506 16.4067 19.4773C16.4067 20.3106 16.248 21.0266 15.9294 21.628C15.6223 22.2204 15.1768 22.7299 14.6307 23.1133C14.065 23.5072 13.4332 23.7962 12.7654 23.9666C12.0651 24.1505 11.344 24.2428 10.62 24.2413H2.66669V7.83331H10.404ZM9.93602 14.4626C10.576 14.4626 11.1067 14.3106 11.5254 14.0026C11.9414 13.6986 12.1427 13.1973 12.1427 12.5106C12.1427 12.1293 12.0747 11.8146 11.9414 11.568C11.8115 11.3307 11.6192 11.1334 11.3854 10.9973C11.1406 10.8522 10.8705 10.7549 10.5894 10.7106C10.2829 10.6535 9.9717 10.6263 9.66002 10.6293H6.28002V14.4626H9.93602ZM10.1374 21.448C10.4934 21.448 10.832 21.4173 11.1507 21.3453C11.472 21.276 11.7574 21.164 12 20.9973C12.2427 20.8373 12.4427 20.62 12.5867 20.3426C12.732 20.068 12.8027 19.7093 12.8027 19.2786C12.8027 18.4333 12.564 17.832 12.092 17.468C11.6187 17.108 10.984 16.9293 10.2067 16.9293H6.28002V21.4493L10.1374 21.448ZM21.5574 21.3933C22.0467 21.8706 22.752 22.1106 23.6694 22.1106C24.3267 22.1106 24.8947 21.944 25.3734 21.6133C25.8454 21.2813 26.1334 20.9266 26.244 20.56H29.1174C28.656 21.9893 27.956 23.0106 26.9987 23.6253C26.0534 24.2426 24.9027 24.5493 23.5587 24.5493C22.6227 24.5493 21.78 24.3986 21.0254 24.1C20.301 23.8179 19.6464 23.3821 19.1067 22.8226C18.5759 22.2502 18.1655 21.5768 17.9 20.8426C17.6082 20.0308 17.4637 19.1733 17.4734 18.3106C17.4734 17.4226 17.6214 16.592 17.912 15.8253C18.1879 15.0842 18.6116 14.407 19.1574 13.8346C19.6974 13.2746 20.3374 12.8333 21.0827 12.5093C21.8665 12.1797 22.7098 12.0154 23.56 12.0266C24.5654 12.0266 25.444 12.2213 26.1987 12.6133C26.9305 12.9875 27.5651 13.5271 28.052 14.1893C28.536 14.8466 28.8814 15.6 29.096 16.444C29.3107 17.2866 29.3854 18.1666 29.324 19.088H20.7494C20.7507 20.0266 21.0667 20.916 21.5574 21.3933ZM25.3067 15.152C24.9187 14.7226 24.2627 14.4906 23.46 14.4906C22.9387 14.4906 22.508 14.5773 22.1614 14.756C21.8444 14.9161 21.5632 15.1388 21.3347 15.4106C21.134 15.6575 20.9853 15.9423 20.8974 16.248C20.8204 16.5029 20.7708 16.7653 20.7494 17.0306H26.0587C25.9814 16.1986 25.696 15.584 25.3067 15.152ZM20.0827 8.93465H26.7347V10.5546H20.0827V8.93465Z" fill="#1A1A1A"/>
</svg>
