<svg width="32" height="33" viewBox="0 0 32 33" fill="none" xmlns="http://www.w3.org/2000/svg">
<path d="M7.56398 8.12797C8.98003 8.12797 10.128 6.98003 10.128 5.56398C10.128 4.14793 8.98003 3 7.56398 3C6.14793 3 5 4.14793 5 5.56398C5 6.98003 6.14793 8.12797 7.56398 8.12797Z" fill="#1A1A1A"/>
<path d="M12.549 10.0709V24.2958H16.9656V17.2613C16.9656 15.4051 17.3149 13.6075 19.6164 13.6075C21.8862 13.6075 21.9143 15.7297 21.9143 17.3785V24.297H26.3333V16.4961C26.3333 12.6642 25.5084 9.71933 21.0296 9.71933C18.8793 9.71933 17.4379 10.8994 16.8485 12.0161H16.7887V10.0709H12.549ZM5.35155 10.0709H9.77524V24.2958H5.35155V10.0709Z" fill="#1A1A1A"/>
</svg>
