<svg width="591" height="526" viewBox="0 0 591 526" fill="none" xmlns="http://www.w3.org/2000/svg">
<path d="M278.071 103.845L283.429 106.938L283.179 107.371L286 109L283.179 110.629L283.429 111.062L278.071 114.155L277.821 113.722L270.679 117.846L270.929 118.279L265.571 121.372L265.321 120.939L258.179 125.063L258.429 125.496L253.071 128.589L252.821 128.156L245.679 132.28L245.929 132.713L240.571 135.806L240.321 135.373L233.179 139.496L233.429 139.929L228.071 143.022L227.821 142.589L224.579 144.461C223.439 142.997 222.267 141.558 221.064 140.146L220.303 140.795C221.466 142.16 222.6 143.551 223.705 144.966L220.679 146.713L221.179 147.579L224.323 145.764C224.646 146.185 224.966 146.608 225.283 147.033L225.684 146.733C226.883 148.337 228.044 149.971 229.166 151.633L228.752 151.912C230.239 154.114 231.657 156.367 233.004 158.666L233.435 158.413C234.447 160.14 235.418 161.893 236.348 163.671L235.905 163.903C237.135 166.255 238.292 168.653 239.373 171.091L239.83 170.888C240.64 172.716 241.408 174.567 242.132 176.44L241.666 176.621C242.622 179.095 243.502 181.608 244.303 184.157L244.78 184.007C245.378 185.913 245.932 187.839 246.441 189.783L245.957 189.91C246.627 192.472 247.218 195.066 247.726 197.69L248.217 197.595C248.596 199.555 248.93 201.531 249.217 203.522L248.722 203.594C249.099 206.211 249.395 208.855 249.606 211.523L250.104 211.483C250.262 213.471 250.373 215.472 250.437 217.484L249.937 217.5C249.979 218.828 250 220.162 250 221.5C250 222.838 249.979 224.172 249.937 225.5L250.437 225.515C250.373 227.528 250.262 229.529 250.105 231.517L249.606 231.477C249.395 234.145 249.099 236.789 248.722 239.406L249.217 239.478C248.93 241.469 248.596 243.445 248.217 245.405L247.726 245.31C247.218 247.934 246.627 250.528 245.957 253.09L246.441 253.217C245.932 255.161 245.378 257.087 244.78 258.993L244.303 258.843C243.502 261.392 242.622 263.905 241.666 266.379L242.132 266.56C241.408 268.433 240.64 270.284 239.83 272.112L239.373 271.909C238.292 274.347 237.135 276.744 235.905 279.097L236.348 279.329C235.612 280.735 234.851 282.126 234.065 283.5H232.083V284.5H232.907C231.589 286.742 230.203 288.938 228.752 291.087L229.581 291.647C231.08 289.427 232.509 287.157 233.867 284.84L233.287 284.5H240.023V284H245.977V284.5H253.917V284H259.872V284.5H267.812V284H273.767V284.5H281.707V284H287.662V284.5H295.602V284H301.556V284.5H309.496V284H315.451V284.5H318.5V285.318H319.5V284.5H323.391V283.5H319.5V277.5H319V271.636H319.5V263.818H319V257.955H319.5V250.136H319V244.273H319.5V236.455H319V230.591H319.5V222.773H319V216.909H319.5V209.091H319V203.227H319.5V195.409H319V189.545H319.5V181.727H319V175.864H319.5V168.045H319V162.182H319.5V154.364H319V148.5H319.5V140.682H319V134.818H319.5V127H319V121.136H319.5V113.318H319V107.455H319.5V99.6364H319V93.7727H319.5V85.9545H319V80.0909H319.5V72.2727H319V66.4091H319.5V62.5C319.5 60.7108 319.908 59.0184 320.636 57.5096L320.186 57.2923C321.365 54.8482 323.348 52.8649 325.792 51.6858L326.01 52.1361C327.518 51.4082 329.211 51 331 51H334.846V50.5H340.615V51H348.308V50.5H354.077V51H361.769V50.5H367.538V51H375.231V50.5H381V51H388.692V50.5H394.462V51H402.154V50.5H407.923V51H415.615V50.5H421.385V51H429.077V50.5H434.846V51H442.538V50.5H448.308V51H456V50.5H461.769V51H469.462V50.5H475.231V51H482.923V50.5H488.692V51H496.385V50.5H502.154V51H506C507.789 51 509.482 51.4082 510.99 52.1361L511.208 51.6858C513.652 52.8649 515.635 54.8482 516.814 57.2923L516.364 57.5096C517.092 59.0184 517.5 60.7108 517.5 62.5V66.4091H518V72.2728H517.5V80.091H518V85.9546H517.5V93.7728H518V99.6364H517.5V107.455H518V113.318H517.5V121.136H518V127H517.5V134.818H518V140.682H517.5V148.5H518V154.364H517.5V162.182H518V168.045H517.5V175.864H518V181.727H517.5V189.545H518V195.409H517.5V203.227H518V209.091H517.5V216.909H518V222.773H517.5V230.591H518V236.455H517.5V244.273H518V250.136H517.5V257.955H518V263.818H517.5V271.636H518V277.5H517.5V285.318H518V286.476C517.44 286.217 516.878 285.963 516.314 285.713L515.909 286.627C518.347 287.708 520.745 288.865 523.097 290.095L523.329 289.652C525.107 290.582 526.86 291.553 528.587 292.564L528.334 292.996C530.633 294.343 532.885 295.761 535.087 297.248L535.367 296.834C537.029 297.956 538.663 299.117 540.267 300.316L539.967 300.716C542.1 302.311 544.181 303.972 546.205 305.697L546.529 305.317C548.055 306.617 549.549 307.953 551.01 309.324L550.668 309.688C552.609 311.509 554.491 313.391 556.312 315.332L556.676 314.99C558.047 316.451 559.383 317.945 560.683 319.47L560.303 319.795C562.028 321.819 563.689 323.899 565.284 326.033L565.684 325.733C566.883 327.337 568.044 328.971 569.166 330.633L568.752 330.912C570.239 333.114 571.657 335.367 573.004 337.666L573.435 337.413C574.447 339.14 575.418 340.893 576.348 342.671L575.905 342.903C577.135 345.255 578.292 347.653 579.373 350.091L579.83 349.888C580.64 351.716 581.408 353.567 582.132 355.44L581.666 355.621C582.622 358.095 583.502 360.608 584.303 363.157L584.78 363.007C585.378 364.913 585.932 366.839 586.441 368.783L585.957 368.91C586.627 371.472 587.218 374.066 587.726 376.69L588.217 376.595C588.596 378.555 588.93 380.531 589.217 382.522L588.722 382.594C589.099 385.211 589.395 387.855 589.606 390.523L590.104 390.483C590.262 392.471 590.373 394.472 590.437 396.484L589.937 396.5C589.979 397.828 590 399.162 590 400.5C590 401.838 589.979 403.172 589.937 404.5L590.437 404.515C590.373 406.528 590.262 408.529 590.104 410.517L589.606 410.477C589.395 413.145 589.099 415.789 588.722 418.406L589.217 418.478C588.93 420.469 588.596 422.445 588.217 424.405L587.726 424.31C587.218 426.934 586.627 429.528 585.957 432.09L586.441 432.217C585.932 434.161 585.378 436.087 584.78 437.993L584.303 437.843C583.502 440.392 582.622 442.905 581.666 445.379L582.132 445.56C581.408 447.433 580.64 449.284 579.83 451.112L579.373 450.909C578.292 453.347 577.135 455.744 575.905 458.097L576.348 458.329C575.418 460.107 574.447 461.86 573.435 463.587L573.004 463.334C571.657 465.633 570.239 467.885 568.752 470.087L569.166 470.367C568.044 472.029 566.883 473.663 565.684 475.267L565.284 474.967C563.689 477.1 562.028 479.181 560.303 481.205L560.683 481.529C559.383 483.055 558.047 484.549 556.676 486.01L556.312 485.668C554.491 487.609 552.609 489.491 550.668 491.312L551.01 491.676C549.549 493.047 548.055 494.383 546.529 495.683L546.205 495.303C544.181 497.028 542.101 498.689 539.967 500.283L540.267 500.684C538.663 501.883 537.029 503.044 535.367 504.166L535.088 503.752C532.886 505.239 530.633 506.657 528.334 508.004L528.587 508.435C526.86 509.447 525.107 510.418 523.329 511.348L523.097 510.905C520.745 512.135 518.347 513.292 515.909 514.373L516.112 514.83C514.284 515.64 512.433 516.408 510.56 517.132L510.379 516.666C507.905 517.622 505.392 518.502 502.843 519.303L502.993 519.78C501.087 520.378 499.161 520.932 497.217 521.441L497.09 520.957C494.528 521.627 491.934 522.218 489.31 522.726L489.405 523.217C487.445 523.596 485.469 523.93 483.478 524.217L483.406 523.722C480.789 524.099 478.145 524.395 475.477 524.606L475.517 525.104C473.529 525.262 471.528 525.373 469.516 525.437L469.5 524.937C468.172 524.979 466.838 525 465.5 525C464.162 525 462.828 524.979 461.5 524.937L461.485 525.437C459.472 525.373 457.471 525.262 455.483 525.104L455.523 524.606C452.855 524.395 450.211 524.099 447.594 523.722L447.522 524.217C445.531 523.93 443.555 523.596 441.595 523.217L441.69 522.726C439.066 522.218 436.472 521.627 433.91 520.957L433.783 521.441C431.839 520.932 429.913 520.378 428.007 519.78L428.157 519.303C425.608 518.502 423.095 517.622 420.621 516.666L420.44 517.132C418.567 516.408 416.716 515.64 414.888 514.83L415.091 514.373C412.653 513.292 410.256 512.135 407.903 510.905L407.671 511.348C405.893 510.418 404.14 509.447 402.413 508.436L402.666 508.004C400.367 506.657 398.115 505.239 395.913 503.752L395.633 504.166C393.971 503.044 392.337 501.883 390.733 500.684L391.033 500.284C388.9 498.689 386.819 497.028 384.795 495.303L384.471 495.683C382.945 494.383 381.451 493.047 379.99 491.676L380.332 491.312C378.391 489.491 376.509 487.609 374.688 485.668L374.324 486.01C372.953 484.549 371.617 483.055 370.317 481.53L370.697 481.205C368.972 479.181 367.311 477.101 365.717 474.967L365.316 475.267C364.117 473.663 362.956 472.029 361.834 470.367L362.248 470.088C361.671 469.233 361.104 468.37 360.547 467.5H365.075V466.5H359.914C359.259 465.455 358.62 464.4 357.996 463.334L357.133 463.84C357.657 464.734 358.191 465.62 358.736 466.5H357.135V467H351.181V466.5H343.241V467H337.286V466.5H329.346V467H323.391V466.5H315.451V467H309.496V466.5H301.556V467H295.602V466.5H287.662V467H281.707V466.5H273.767V467H267.812V466.5H259.872V467H253.917V466.5H245.977V467H240.023V466.5H232.083V467H226.128V466.5H218.188V467H212.233V466.5H204.293V467H198.338V466.5H190.398V467H184.444V466.5H176.504V467H170.549V466.5H162.609V467H156.654V466.5H148.714V467H142.759V466.5H134.82V467H128.865V466.5H120.925V467H114.97V466.5H111C109.211 466.5 107.518 466.092 106.01 465.364L105.792 465.814C103.348 464.635 101.365 462.652 100.186 460.208L100.636 459.99C99.9082 458.482 99.5 456.789 99.5 455V450.87H99V444.675H99.5V436.416H99V430.221H99.5V421.961H99V415.766H99.5V407.507H99V401.312H99.5V393.052H99V386.857H99.5V378.597H99V372.403H99.5V364.143H99V357.948H99.5V349.688H99V344.197C99.8303 344.375 100.664 344.546 101.5 344.708L101.69 343.726C100.958 343.584 100.228 343.436 99.5 343.281V335.234H98.5V343.064C96.9589 342.724 95.4286 342.354 93.9096 341.957L93.7831 342.441C91.8388 341.932 89.913 341.378 88.0068 340.78L88.1566 340.303C85.6083 339.502 83.0953 338.622 80.6206 337.666L80.4403 338.132C78.5674 337.408 76.7163 336.64 74.8883 335.83L75.091 335.373C72.6526 334.292 70.2555 333.135 67.9026 331.905L67.6709 332.348C65.8927 331.418 64.1396 330.447 62.413 329.436L62.6657 329.004C60.3666 327.657 58.1145 326.239 55.9125 324.752L55.6327 325.166C53.9707 324.044 52.3371 322.883 50.7333 321.684L51.0327 321.284C48.8995 319.689 46.8192 318.028 44.7948 316.303L44.4705 316.683C42.945 315.383 41.451 314.047 39.9901 312.676L40.3322 312.312C38.3914 310.491 36.509 308.609 34.6882 306.668L34.3235 307.01C32.9528 305.549 31.6168 304.055 30.3169 302.53L30.6974 302.205C28.9724 300.181 27.3111 298.101 25.7165 295.967L25.316 296.267C24.1172 294.663 22.9559 293.029 21.8336 291.367L22.248 291.088C20.761 288.886 19.3427 286.633 17.9959 284.334L17.5645 284.587C16.5531 282.86 15.582 281.107 14.6524 279.329L15.0955 279.097C13.8654 276.745 12.7084 274.347 11.6274 271.909L11.1703 272.112C10.3599 270.284 9.59202 268.433 8.86797 266.56L9.33433 266.379C8.37758 263.905 7.49764 261.392 6.69744 258.843L6.2204 258.993C5.62183 257.087 5.06769 255.161 4.55919 253.217L5.04293 253.09C4.37281 250.528 3.78229 247.934 3.27415 245.31L2.78327 245.405C2.40373 243.445 2.06997 241.469 1.78316 239.478L2.27805 239.406C1.90104 236.789 1.60545 234.145 1.39394 231.477L0.895502 231.517C0.737901 229.529 0.626796 227.528 0.563276 225.516L1.06303 225.5C1.02111 224.172 1 222.838 1 221.5C1 220.162 1.02111 218.828 1.06303 217.5L0.563275 217.485C0.626795 215.472 0.737899 213.471 0.895499 211.483L1.39394 211.523C1.60545 208.855 1.90103 206.211 2.27805 203.594L1.78315 203.522C2.06997 201.531 2.40373 199.555 2.78327 197.595L3.27415 197.69C3.78228 195.066 4.37281 192.472 5.04292 189.91L4.55919 189.783C5.06769 187.839 5.62182 185.913 6.22039 184.007L6.69743 184.157C7.49763 181.608 8.37757 179.095 9.33432 176.621L8.86796 176.44C9.59201 174.567 10.3599 172.716 11.1703 170.888L11.6274 171.091C12.7084 168.653 13.8654 166.256 15.0955 163.903L14.6524 163.671C15.582 161.893 16.5531 160.14 17.5645 158.413L17.9959 158.666C19.3426 156.367 20.761 154.114 22.2479 151.913L21.8336 151.633C22.9559 149.971 24.1172 148.337 25.316 146.733L25.7165 147.033C27.311 144.9 28.9724 142.819 30.6974 140.795L30.3168 140.471C31.6168 138.945 32.9528 137.451 34.3235 135.99L34.6881 136.332C36.509 134.391 38.3914 132.509 40.3321 130.688L39.99 130.324C41.451 128.953 42.9449 127.617 44.4705 126.317L44.7948 126.697C46.8192 124.972 48.8995 123.311 51.0326 121.717L50.7333 121.316C52.3371 120.117 53.9707 118.956 55.6327 117.834L55.9125 118.248C58.1145 116.761 60.3665 115.343 62.6656 113.996L62.4129 113.565C64.1396 112.553 65.8927 111.582 67.6709 110.652L67.9026 111.095C70.2555 109.865 72.6526 108.708 75.0909 107.627L74.8883 107.17C76.7163 106.36 78.5674 105.592 80.4402 104.868L80.6205 105.334C83.0953 104.378 85.6083 103.498 88.1566 102.697L88.0068 102.22C89.9129 101.622 91.8388 101.068 93.7831 100.559L93.9096 101.043C95.5928 100.603 97.2898 100.197 99 99.8261V105.907H100V99.6137C100.562 99.4967 101.125 99.3835 101.69 99.2742L101.5 98.2924C100.999 98.3894 100.499 98.4894 100 98.5924V97.6592H99.5V91.4733H100V83.2254H99.5V77.0395H100V68.7917H99.5V62.6058H100V54.3579H99.5V48.172H100V39.9242H99.5V33.7383H100V25.4904H99.5V19.3045H100V11.0567H99.5V4.87076H100V1.61285L102.821 3.24178L103.071 2.80877L108.429 5.90172L108.179 6.33473L115.321 10.4587L115.571 10.0257L120.929 13.1186L120.679 13.5516L127.821 17.6755L128.071 17.2425L133.429 20.3355L133.179 20.7685L140.321 24.8924L140.571 24.4594L145.929 27.5524L145.679 27.9854L152.821 32.1093L153.071 31.6763L158.429 34.7692L158.179 35.2023L165.321 39.3262L165.571 38.8932L170.929 41.9861L170.679 42.4191L177.821 46.5431L178.071 46.1101L183.429 49.203L183.179 49.636L190.321 53.7599L190.571 53.3269L195.929 56.4199L195.679 56.8529L202.821 60.9768L203.071 60.5438L208.429 63.6368L208.179 64.0698L215.321 68.1937L215.571 67.7607L220.929 70.8536L220.679 71.2867L227.821 75.4106L228.071 74.9776L233.429 78.0705L233.179 78.5035L240.321 82.6275L240.571 82.1945L245.929 85.2874L245.679 85.7204L252.821 89.8443L253.071 89.4113L258.429 92.5043L258.179 92.9373L265.321 97.0612L265.571 96.6282L270.929 99.7212L270.679 100.154L277.821 104.278L278.071 103.845ZM99 218.119L99.75 217.686L103.321 215.624L102.821 214.758L100 216.387V213.129H99V217.253V218.119ZM318.5 363.5C318.5 365.443 318.944 367.283 319.735 368.925L320.636 368.49C319.908 366.982 319.5 365.289 319.5 363.5V359.591H318.5V363.5ZM325.575 374.765C327.217 375.556 329.057 376 331 376H334.846V375H331C329.211 375 327.518 374.592 326.01 373.864L325.575 374.765ZM506 376C507.943 376 509.783 375.556 511.425 374.765L510.99 373.864C509.482 374.592 507.789 375 506 375H502.154V376H506ZM517.265 368.925C518.056 367.283 518.5 365.443 518.5 363.5V359.591H517.5V363.5C517.5 365.289 517.092 366.982 516.364 368.49L517.265 368.925ZM375 467.5C376.943 467.5 378.783 467.056 380.425 466.265L379.99 465.364C378.482 466.092 376.789 466.5 375 466.5H371.03V467.5H375ZM386.265 460.425C387.056 458.783 387.5 456.943 387.5 455V450.87H386.5V455C386.5 456.789 386.092 458.482 385.364 459.99L386.265 460.425ZM387.5 296C387.5 294.057 387.056 292.217 386.265 290.575L385.364 291.01C386.092 292.518 386.5 294.211 386.5 296V300.13H387.5V296ZM380.425 284.735C378.783 283.944 376.943 283.5 375 283.5H371.03V284.5H375C376.789 284.5 378.482 284.908 379.99 285.636L380.425 284.735ZM111 283.5C109.057 283.5 107.217 283.944 105.575 284.735L106.01 285.636C107.518 284.908 109.211 284.5 111 284.5H114.97V283.5H111ZM99.7355 290.575C98.9436 292.217 98.5 294.057 98.5 296V300.13H99.5V296C99.5 294.211 99.9082 292.518 100.636 291.01L99.7355 290.575ZM217.041 135.648C215.206 133.692 213.308 131.794 211.352 129.959L210.668 130.688C212.609 132.509 214.491 134.391 216.312 136.332L217.041 135.648ZM206.854 125.936C204.813 124.197 202.716 122.523 200.566 120.916L199.967 121.716C202.1 123.311 204.181 124.972 206.205 126.697L206.854 125.936ZM195.647 117.419C193.427 115.92 191.157 114.491 188.84 113.133L188.334 113.996C190.633 115.343 192.886 116.761 195.087 118.248L195.647 117.419ZM183.561 110.209C181.189 108.969 178.772 107.803 176.314 106.713L175.909 107.627C178.347 108.708 180.744 109.865 183.097 111.095L183.561 110.209ZM170.74 104.402C168.245 103.437 165.712 102.55 163.143 101.743L162.843 102.697C165.392 103.498 167.905 104.378 170.379 105.334L170.74 104.402ZM157.343 100.075C154.76 99.3999 152.145 98.8046 149.5 98.2924L149.31 99.2741C151.934 99.7823 154.528 100.373 157.09 101.043L157.343 100.075ZM143.549 97.2883C140.91 96.9082 138.245 96.6103 135.556 96.3971L135.477 97.3939C138.145 97.6054 140.789 97.901 143.406 98.278L143.549 97.2883ZM129.531 96.0635C128.193 96.0213 126.849 96 125.5 96C124.151 96 122.807 96.0213 121.469 96.0635L121.5 97.063C122.828 97.0211 124.162 97 125.5 97C126.838 97 128.172 97.0211 129.5 97.063L129.531 96.0635ZM115.444 96.3971C112.755 96.6103 110.09 96.9082 107.451 97.2883L107.594 98.278C110.211 97.901 112.855 97.6054 115.523 97.3939L115.444 96.3971ZM107.451 345.712C110.09 346.092 112.755 346.39 115.444 346.603L115.523 345.606C112.855 345.395 110.211 345.099 107.594 344.722L107.451 345.712ZM121.469 346.936C122.807 346.979 124.151 347 125.5 347C126.849 347 128.193 346.979 129.531 346.936L129.5 345.937C128.172 345.979 126.838 346 125.5 346C124.162 346 122.828 345.979 121.5 345.937L121.469 346.936ZM135.556 346.603C138.245 346.39 140.91 346.092 143.549 345.712L143.406 344.722C140.789 345.099 138.145 345.395 135.477 345.606L135.556 346.603ZM149.5 344.708C152.145 344.195 154.76 343.6 157.343 342.925L157.09 341.957C154.528 342.627 151.934 343.218 149.31 343.726L149.5 344.708ZM163.143 341.257C165.712 340.45 168.245 339.563 170.74 338.598L170.379 337.666C167.905 338.622 165.392 339.502 162.843 340.303L163.143 341.257ZM176.314 336.287C178.772 335.197 181.189 334.031 183.561 332.791L183.097 331.905C180.745 333.135 178.347 334.292 175.909 335.373L176.314 336.287ZM188.84 329.867C191.157 328.509 193.428 327.08 195.647 325.581L195.088 324.752C192.886 326.239 190.633 327.657 188.334 329.004L188.84 329.867ZM200.566 322.084C202.716 320.477 204.813 318.803 206.854 317.064L206.205 316.303C204.181 318.028 202.101 319.689 199.967 321.283L200.566 322.084ZM211.352 313.041C213.308 311.206 215.206 309.308 217.041 307.352L216.312 306.668C214.491 308.609 212.609 310.491 210.668 312.312L211.352 313.041ZM221.064 302.854C222.803 300.813 224.477 298.716 226.084 296.566L225.284 295.967C223.689 298.1 222.028 300.181 220.303 302.205L221.064 302.854ZM510.74 283.402C508.245 282.437 505.712 281.55 503.143 280.743L502.843 281.697C505.392 282.498 507.905 283.378 510.379 284.334L510.74 283.402ZM497.343 279.075C494.76 278.4 492.145 277.805 489.5 277.292L489.31 278.274C491.934 278.782 494.528 279.373 497.09 280.043L497.343 279.075ZM483.549 276.288C480.91 275.908 478.245 275.61 475.556 275.397L475.477 276.394C478.145 276.605 480.789 276.901 483.406 277.278L483.549 276.288ZM469.531 275.064C468.193 275.021 466.849 275 465.5 275C464.151 275 462.807 275.021 461.469 275.064L461.5 276.063C462.828 276.021 464.162 276 465.5 276C466.838 276 468.172 276.021 469.5 276.063L469.531 275.064ZM455.444 275.397C452.755 275.61 450.09 275.908 447.451 276.288L447.594 277.278C450.211 276.901 452.855 276.605 455.523 276.394L455.444 275.397ZM441.5 277.292C438.855 277.805 436.24 278.4 433.657 279.075L433.91 280.043C436.472 279.373 439.066 278.782 441.69 278.274L441.5 277.292ZM427.857 280.743C425.288 281.55 422.755 282.437 420.26 283.402L420.621 284.334C423.095 283.378 425.608 282.498 428.157 281.697L427.857 280.743ZM414.686 285.713C412.228 286.803 409.811 287.969 407.439 289.209L407.903 290.095C410.255 288.865 412.653 287.708 415.091 286.627L414.686 285.713ZM402.16 292.133C399.843 293.491 397.572 294.92 395.353 296.419L395.912 297.248C398.114 295.761 400.367 294.343 402.666 292.996L402.16 292.133ZM390.434 299.916C388.284 301.523 386.187 303.197 384.146 304.936L384.795 305.697C386.819 303.972 388.899 302.311 391.033 300.717L390.434 299.916ZM379.648 308.959C377.692 310.794 375.794 312.692 373.959 314.648L374.688 315.332C376.509 313.391 378.391 311.509 380.332 309.688L379.648 308.959ZM369.936 319.146C368.197 321.187 366.523 323.284 364.916 325.434L365.716 326.033C367.311 323.9 368.972 321.819 370.697 319.795L369.936 319.146ZM361.419 330.353C359.92 332.573 358.491 334.843 357.133 337.16L357.996 337.666C359.343 335.367 360.761 333.115 362.248 330.913L361.419 330.353ZM354.209 342.439C352.969 344.811 351.803 347.228 350.713 349.686L351.627 350.091C352.708 347.653 353.865 345.256 355.095 342.903L354.209 342.439ZM348.402 355.26C347.437 357.755 346.55 360.288 345.743 362.857L346.697 363.157C347.498 360.608 348.378 358.095 349.334 355.621L348.402 355.26ZM344.075 368.657C343.528 370.75 343.033 372.865 342.592 375H340.615V376H342.39C342.357 376.167 342.325 376.333 342.292 376.5L343.274 376.69C343.319 376.46 343.364 376.23 343.41 376H348.308V375H343.614C344.04 372.951 344.517 370.92 345.043 368.91L344.075 368.657ZM341.288 382.451C340.908 385.09 340.61 387.755 340.397 390.444L341.394 390.523C341.605 387.855 341.901 385.211 342.278 382.594L341.288 382.451ZM340.064 396.469C340.021 397.807 340 399.151 340 400.5C340 401.849 340.021 403.193 340.064 404.531L341.063 404.5C341.021 403.172 341 401.838 341 400.5C341 399.162 341.021 397.828 341.063 396.5L340.064 396.469ZM340.397 410.556C340.61 413.245 340.908 415.91 341.288 418.549L342.278 418.406C341.901 415.789 341.605 413.145 341.394 410.477L340.397 410.556ZM342.292 424.5C342.805 427.145 343.4 429.76 344.075 432.343L345.043 432.09C344.373 429.528 343.782 426.934 343.274 424.31L342.292 424.5ZM345.743 438.143C346.55 440.712 347.437 443.245 348.402 445.74L349.334 445.379C348.378 442.905 347.498 440.392 346.697 437.843L345.743 438.143ZM350.713 451.314C351.803 453.772 352.969 456.189 354.209 458.561L355.095 458.097C353.865 455.745 352.708 453.347 351.627 450.909L350.713 451.314ZM108.679 212.531L115.821 208.407L115.321 207.541L108.179 211.665L108.679 212.531ZM121.179 205.314L128.321 201.19L127.821 200.324L120.679 204.448L121.179 205.314ZM133.679 198.098L140.821 193.974L140.321 193.108L133.179 197.231L133.679 198.098ZM146.179 190.881L153.321 186.757L152.821 185.891L145.679 190.015L146.179 190.881ZM158.679 183.664L165.821 179.54L165.321 178.674L158.179 182.798L158.679 183.664ZM171.179 176.447L178.321 172.323L177.821 171.457L170.679 175.581L171.179 176.447ZM183.679 169.23L190.821 165.106L190.321 164.24L183.179 168.364L183.679 169.23ZM196.179 162.013L203.321 157.889L202.821 157.023L195.679 161.147L196.179 162.013ZM208.679 154.796L215.821 150.672L215.321 149.806L208.179 153.93L208.679 154.796ZM318.5 291.182V299H319.5V291.182H318.5ZM318.5 304.864V312.682H319.5V304.864H318.5ZM318.5 318.545V326.364H319.5V318.545H318.5ZM318.5 332.227V340.045H319.5V332.227H318.5ZM318.5 345.909V353.727H319.5V345.909H318.5ZM354.077 376H361.769V375H354.077V376ZM367.538 376H375.231V375H367.538V376ZM381 376H388.692V375H381V376ZM394.462 376H402.154V375H394.462V376ZM407.923 376H415.615V375H407.923V376ZM421.385 376H429.077V375H421.385V376ZM434.846 376H442.538V375H434.846V376ZM448.308 376H456V375H448.308V376ZM461.769 376H469.462V375H461.769V376ZM475.231 376H482.923V375H475.231V376ZM488.692 376H496.385V375H488.692V376ZM518.5 353.727V345.909H517.5V353.727H518.5ZM518.5 340.045V332.227H517.5V340.045H518.5ZM518.5 326.364V318.545H517.5V326.364H518.5ZM518.5 312.682V304.864H517.5V312.682H518.5ZM518.5 299V291.182H517.5V299H518.5ZM98.5 306.325V314.584H99.5V306.325H98.5ZM98.5 320.779V329.039H99.5V320.779H98.5ZM387.5 444.675V436.416H386.5V444.675H387.5ZM387.5 430.221V421.961H386.5V430.221H387.5ZM387.5 415.766V407.507H386.5V415.766H387.5ZM387.5 401.312V393.052H386.5V401.312H387.5ZM387.5 386.857V378.597H386.5V386.857H387.5ZM387.5 372.403V364.143H386.5V372.403H387.5ZM387.5 357.948V349.688H386.5V357.948H387.5ZM387.5 343.493V335.234H386.5V343.493H387.5ZM387.5 329.039V320.779H386.5V329.039H387.5ZM387.5 314.584V306.325H386.5V314.584H387.5ZM365.075 283.5H357.135V284.5H365.075V283.5ZM351.18 283.5H343.241V284.5H351.18V283.5ZM337.286 283.5H329.346V284.5H337.286V283.5ZM226.128 283.5H218.188V284.5H226.128V283.5ZM212.233 283.5H204.293V284.5H212.233V283.5ZM198.338 283.5H190.398V284.5H198.338V283.5ZM184.444 283.5H176.504V284.5H184.444V283.5ZM170.549 283.5H162.609V284.5H170.549V283.5ZM156.654 283.5H148.714V284.5H156.654V283.5ZM142.759 283.5H134.819V284.5H142.759V283.5ZM128.865 283.5H120.925V284.5H128.865V283.5ZM99 112.093V120.341H100V112.093H99ZM99 126.527V134.775H100V126.527H99ZM99 140.96V149.208H100V140.96H99ZM99 155.394V163.642H100V155.394H99ZM99 169.828V178.076H100V169.828H99ZM99 184.262V192.51H100V184.262H99ZM99 198.696V206.943H100V198.696H99Z" stroke="#1A1A1A" stroke-opacity="0.48" stroke-dasharray="8 6"/>
</svg>
