<svg width="580" height="569" viewBox="0 0 580 569" fill="none" xmlns="http://www.w3.org/2000/svg">
<g clip-path="url(#clip0_1045_183)">
<path d="M53.5938 280.122H16.4062C7.34533 280.122 0 287.399 0 296.376L0 333.218C0 342.195 7.34533 349.472 16.4063 349.472H53.5938C62.6547 349.472 70 342.195 70 333.218V296.376C70 287.399 62.6547 280.122 53.5938 280.122Z" fill="#330000"/>
<path d="M33.8332 321.388H22.9832L20.7665 328.179C20.7082 328.439 20.475 328.613 20.2125 328.584H14.729C14.4082 328.584 14.3207 328.41 14.4082 328.063L23.8 301.277C23.8875 300.988 23.975 300.67 24.0915 300.323C24.2082 299.717 24.2665 299.081 24.2665 298.445C24.2375 298.301 24.354 298.156 24.5 298.127H32.054C32.2875 298.127 32.404 298.214 32.4332 298.359L43.079 328.121C43.1665 328.439 43.079 328.584 42.7875 328.584H36.6915C36.4875 328.613 36.2832 328.468 36.225 328.266L33.8332 321.388ZM24.675 315.523H32.0832C31.9082 314.916 31.675 314.193 31.4125 313.442C31.15 312.662 30.8875 311.824 30.625 310.957C30.3332 310.061 30.0707 309.195 29.779 308.299C29.4875 307.403 29.225 306.565 28.9915 305.727C28.7582 304.918 28.554 304.167 28.35 303.473H28.2915C28.029 304.716 27.7082 305.958 27.3 307.201C26.8625 308.588 26.425 310.032 25.9582 311.477C25.5816 312.841 25.1535 314.191 24.675 315.523ZM49.5832 303.184C48.6207 303.213 47.6875 302.837 46.9875 302.173C46.3168 301.45 45.9668 300.497 45.9957 299.514C45.9668 298.532 46.3457 297.607 47.0457 296.943C47.7457 296.278 48.6793 295.931 49.6418 295.931C50.7793 295.931 51.6543 296.278 52.2957 296.943C52.9421 297.643 53.2874 298.566 53.2582 299.514C53.2875 300.497 52.9375 301.45 52.2375 302.173C51.5668 302.866 50.575 303.242 49.5832 303.184ZM46.3168 328.266V306.016C46.3168 305.727 46.4332 305.611 46.6957 305.611H52.4707C52.7332 305.611 52.85 305.756 52.85 306.016V328.266C52.85 328.584 52.7332 328.728 52.4707 328.728H46.7543C46.4625 328.728 46.3168 328.555 46.3168 328.266Z" fill="#FF9A00"/>
</g>
<g clip-path="url(#clip1_1045_183)">
<path d="M119.545 118.507H69.4555C62.58 118.507 57.0063 124.163 57.0063 131.139V180.061C57.0063 187.037 62.58 192.692 69.4555 192.692H119.545C126.42 192.692 131.994 187.037 131.994 180.061V131.139C131.994 124.163 126.42 118.507 119.545 118.507Z" fill="#470137"/>
<path d="M96.4271 138.017L87.0703 153.687L97.0809 170.326C97.1453 170.443 97.1632 170.58 97.1313 170.709C97.1157 170.764 97.0823 170.778 97.0311 170.78L96.9743 170.779L96.9051 170.777C96.8676 170.777 96.8257 170.779 96.7792 170.787H89.5616L89.4198 170.785C89.0308 170.774 88.7505 170.718 88.5797 170.428C87.9119 169.108 87.2411 167.79 86.5674 166.473C85.9647 165.298 85.3456 164.132 84.7102 162.975L84.4296 162.466C83.6697 161.095 82.9235 159.717 82.1911 158.332H82.1407C81.4644 159.703 80.7684 161.064 80.0531 162.415C79.3316 163.776 78.6189 165.129 77.9151 166.473C77.2108 167.817 76.4897 169.153 75.7521 170.479C75.6335 170.75 75.4364 170.806 75.1619 170.815L75.0476 170.817H68.1561L68.1262 170.818L68.0278 170.827C67.973 170.83 67.9402 170.818 67.9297 170.735C67.9108 170.61 67.9377 170.483 68.0052 170.377L77.7138 154.197L68.2566 137.966C68.1561 137.831 68.1394 137.72 68.2062 137.634C68.2433 137.591 68.2899 137.557 68.3423 137.534C68.3947 137.512 68.4515 137.503 68.5082 137.507H75.601C75.7557 137.498 75.9103 137.524 76.0538 137.583C76.1739 137.653 76.2773 137.749 76.3555 137.864C76.9593 139.225 77.63 140.587 78.3679 141.947C79.1001 143.299 79.8463 144.644 80.6064 145.98C81.3549 147.295 82.0514 148.64 82.6941 150.012H82.7444C83.4031 148.64 84.0823 147.279 84.7817 145.929C85.4686 144.602 86.1731 143.266 86.8943 141.922C87.6063 140.595 88.3022 139.259 88.9819 137.915C89.0206 137.789 89.0897 137.675 89.1831 137.583C89.3074 137.519 89.447 137.493 89.5856 137.507H96.1755C96.236 137.491 96.2999 137.496 96.3574 137.521C96.4149 137.546 96.463 137.589 96.4944 137.643C96.5257 137.698 96.5387 137.762 96.5314 137.825C96.5241 137.888 96.4968 137.946 96.4537 137.992L96.4271 138.017ZM111.211 171.445L110.864 171.449C108.549 171.485 106.254 170.997 104.148 170.02C102.186 169.099 100.546 167.595 99.4448 165.707C98.3343 163.836 97.7643 161.504 97.7356 158.712L97.7344 158.485C97.7155 156.142 98.3056 153.836 99.445 151.798C100.585 149.781 102.248 148.12 104.252 146.993L104.425 146.898C106.604 145.673 109.237 145.061 112.323 145.061L112.457 145.062L112.612 145.067L112.784 145.075L112.977 145.086L113.299 145.109L113.665 145.139L113.932 145.163V135.107C113.932 134.87 114.033 134.75 114.234 134.75H120.573C120.614 134.744 120.655 134.748 120.695 134.761C120.734 134.775 120.77 134.797 120.799 134.827C120.828 134.856 120.85 134.893 120.863 134.932C120.876 134.972 120.88 135.015 120.874 135.056V165.222C120.874 165.729 120.894 166.274 120.932 166.858L121.026 168.182L121.076 168.948C121.082 169.054 121.056 169.16 121.003 169.251C120.949 169.342 120.869 169.414 120.774 169.459C119.139 170.151 117.435 170.664 115.693 170.99C114.214 171.267 112.715 171.419 111.211 171.445ZM113.932 165.12V151.186C113.66 151.111 113.383 151.06 113.102 151.033C112.76 150.998 112.416 150.98 112.071 150.981C110.85 150.969 109.644 151.249 108.55 151.798C107.484 152.336 106.574 153.145 105.909 154.146C105.245 155.132 104.901 156.419 104.879 158.007L104.878 158.178C104.853 159.291 105.032 160.399 105.406 161.445C105.71 162.288 106.19 163.054 106.815 163.691C107.412 164.276 108.135 164.713 108.927 164.967C109.764 165.242 110.638 165.38 111.518 165.376C111.987 165.376 112.423 165.358 112.826 165.324C113.147 165.3 113.465 165.246 113.777 165.164L113.932 165.12Z" fill="#FF61F6"/>
</g>
<g clip-path="url(#clip2_1045_183)">
<path d="M75.4878 490.735C82.5833 490.735 88.342 484.934 88.342 477.787L88.342 464.838L75.4878 464.838C68.3924 464.838 62.6337 470.639 62.6337 477.787C62.6337 484.934 68.3924 490.735 75.4878 490.735Z" fill="#0ACF83"/>
<path d="M62.6337 451.889C62.6337 444.741 68.3924 438.94 75.4878 438.94L88.342 438.94L88.342 464.838L75.4878 464.838C68.3924 464.838 62.6337 459.036 62.6337 451.889Z" fill="#A259FF"/>
<path d="M62.6337 425.991C62.6337 418.843 68.3924 413.042 75.4878 413.042L88.342 413.042L88.342 438.94L75.4878 438.94C68.3924 438.94 62.6337 433.138 62.6337 425.991Z" fill="#F24E1E"/>
<path d="M88.342 413.042L101.196 413.042C108.292 413.042 114.05 418.843 114.05 425.991C114.05 433.138 108.292 438.94 101.196 438.94L88.342 438.94L88.342 413.042Z" fill="#FF7262"/>
<path d="M114.05 451.889C114.05 459.036 108.292 464.838 101.196 464.838C94.1006 464.838 88.342 459.036 88.342 451.889C88.342 444.741 94.1006 438.94 101.196 438.94C108.292 438.94 114.05 444.741 114.05 451.889Z" fill="#1ABCFE"/>
</g>
<g clip-path="url(#clip3_1045_183)">
<path d="M211.183 493.169C192.189 493.169 193.375 501.445 193.375 501.445L193.396 510.019H211.521V512.593H186.198C186.198 512.593 174.044 511.208 174.044 530.464C174.044 549.72 184.652 549.037 184.652 549.037H190.983V540.102C190.983 540.102 190.641 529.443 201.421 529.443H219.398C219.398 529.443 229.498 529.607 229.498 519.635V503.147C229.498 503.147 231.032 493.169 211.183 493.169ZM201.189 498.935C201.617 498.935 202.041 499.019 202.437 499.184C202.833 499.348 203.192 499.589 203.495 499.894C203.798 500.198 204.038 500.559 204.202 500.957C204.365 501.355 204.45 501.781 204.449 502.211C204.45 502.642 204.365 503.068 204.202 503.465C204.038 503.863 203.798 504.224 203.495 504.529C203.192 504.833 202.833 505.074 202.437 505.239C202.041 505.403 201.617 505.488 201.189 505.487C200.76 505.488 200.336 505.403 199.94 505.239C199.545 505.074 199.185 504.833 198.882 504.529C198.579 504.224 198.339 503.863 198.175 503.465C198.012 503.068 197.928 502.642 197.928 502.211C197.928 501.781 198.012 501.355 198.175 500.957C198.339 500.559 198.579 500.198 198.882 499.894C199.185 499.589 199.545 499.348 199.94 499.184C200.336 499.019 200.76 498.935 201.189 498.935Z" fill="url(#paint0_linear_1045_183)"/>
<path d="M211.722 567.953C230.715 567.953 229.529 559.677 229.529 559.677L229.508 551.103H211.383V548.529H236.706C236.706 548.529 248.86 549.914 248.86 530.657C248.86 511.401 238.252 512.084 238.252 512.084H231.921V521.02C231.921 521.02 232.262 531.679 221.482 531.679H203.506C203.506 531.679 193.406 531.515 193.406 541.487V557.975C193.406 557.975 191.873 567.953 211.722 567.953ZM221.715 562.187C221.287 562.188 220.863 562.103 220.467 561.939C220.071 561.774 219.712 561.533 219.409 561.229C219.106 560.924 218.866 560.563 218.702 560.165C218.538 559.768 218.454 559.341 218.455 558.911C218.454 558.481 218.538 558.054 218.702 557.657C218.866 557.259 219.106 556.898 219.409 556.593C219.712 556.289 220.071 556.048 220.467 555.883C220.863 555.719 221.287 555.634 221.715 555.634C222.144 555.634 222.568 555.719 222.964 555.883C223.359 556.048 223.719 556.289 224.022 556.593C224.325 556.898 224.565 557.259 224.729 557.657C224.892 558.054 224.976 558.48 224.976 558.911C224.976 559.341 224.892 559.767 224.729 560.165C224.565 560.563 224.325 560.924 224.022 561.228C223.719 561.533 223.359 561.774 222.964 561.938C222.568 562.103 222.144 562.188 221.715 562.187Z" fill="url(#paint1_linear_1045_183)"/>
</g>
<path d="M347.957 92.9445L319.471 85.9612L313.123 23.0867H382.877L376.522 85.9516L347.957 92.9445Z" fill="#264DE4"/>
<path d="M371.082 81.9485L376.512 28.2275H348V87.5992L371.082 81.9485Z" fill="#2965F1"/>
<path d="M327.676 51.5468L328.458 59.2581H348V51.5468H327.676ZM326.103 35.939L326.897 43.6503H348V35.939H326.103ZM348 71.574L347.962 71.5829L338.236 69.264L337.615 63.1139H328.849L330.072 75.2218L347.96 79.6066L348 79.597V71.574Z" fill="#EBEBEB"/>
<path d="M329.539 6H340.115V9.90575H333.962V13.8115H340.116V17.717H329.539V6ZM342.231 6H352.807V9.39629H346.654V10.0755H352.807V17.887H342.231V14.3205H348.385V13.6413H342.231L342.231 6ZM354.923 6H365.499V9.39629H359.346V10.0755H365.499V17.887H354.923V14.3205H361.076V13.6413H354.923L354.923 6Z" fill="black"/>
<path d="M368.268 51.5468L369.845 35.939H347.97V43.6503H360.275L359.48 51.5468H347.97V59.2581H358.723L357.709 69.2591L347.97 71.5805V79.603L365.872 75.2218L368.055 53.6175L368.268 51.5468Z" fill="white"/>
<g clip-path="url(#clip4_1045_183)">
<path d="M373.8 545.939C373.8 545.939 369.677 548.149 376.735 548.897C385.287 549.796 389.657 549.668 399.081 548.024C399.081 548.024 401.559 549.455 405.018 550.696C383.893 559.04 357.207 550.212 373.8 545.939ZM371.219 535.05C371.219 535.05 366.594 538.206 373.658 538.879C382.792 539.747 390.006 539.818 402.489 537.603C402.489 537.603 404.216 539.216 406.931 540.099C381.389 546.982 352.94 540.641 371.219 535.05Z" fill="#5382A1"/>
<path d="M392.981 516.578C398.187 522.102 391.614 527.072 391.614 527.072C391.614 527.072 404.83 520.784 398.761 512.909C393.091 505.565 388.744 501.916 412.28 489.336C412.28 489.336 375.336 497.84 392.981 516.578Z" fill="#E76F00"/>
<path d="M420.921 553.994C420.921 553.994 423.973 556.311 417.56 558.104C405.366 561.508 366.808 562.536 356.097 558.239C352.246 556.696 359.467 554.553 361.738 554.104C364.107 553.63 365.461 553.719 365.461 553.719C361.179 550.938 337.783 559.178 353.577 561.537C396.649 567.975 432.093 558.638 420.921 553.994ZM375.783 523.768C375.783 523.768 356.17 528.061 368.838 529.62C374.187 530.28 384.849 530.131 394.781 529.364C402.898 528.733 411.048 527.391 411.048 527.391C411.048 527.391 408.186 528.521 406.115 529.824C386.198 534.652 347.723 532.406 358.799 527.467C368.167 523.294 375.783 523.768 375.783 523.768ZM410.967 541.893C431.214 532.196 421.853 522.878 415.319 524.134C413.717 524.441 413.003 524.707 413.003 524.707C413.003 524.707 413.598 523.849 414.733 523.477C427.659 519.289 437.6 535.83 410.56 542.382C410.56 542.382 410.874 542.124 410.967 541.893Z" fill="#5382A1"/>
<path d="M398.761 469.022C398.761 469.022 409.973 479.36 388.126 495.256C370.606 508.008 384.131 515.279 388.118 523.586C377.892 515.082 370.387 507.596 375.422 500.629C382.812 490.401 403.284 485.443 398.761 469.022Z" fill="#E76F00"/>
<path d="M377.773 568.168C397.207 569.315 427.05 567.532 427.757 559.057C427.757 559.057 426.398 562.27 411.696 564.822C395.108 567.698 374.65 567.363 362.516 565.519C362.516 565.519 365 567.414 377.773 568.168Z" fill="#5382A1"/>
</g>
<g clip-path="url(#clip5_1045_183)">
<path d="M249.326 51.6642L243.041 112.069L214.79 118.788L186.616 112.078L180.338 51.6642H249.326Z" fill="#E44D26"/>
<path d="M214.832 113.652L237.66 108.223L243.031 56.6038H214.832V113.652Z" fill="#F16529"/>
<path d="M202.614 71.4232H214.832V64.0136H193.175L195.505 86.4202H214.832V79.0107H203.403L202.614 71.4232ZM204.56 90.1251H195.891L197.101 101.759L214.792 105.972L214.832 105.963V98.2541L214.794 98.2627L205.175 96.0345L204.56 90.1251Z" fill="#EBEBEB"/>
<path d="M186.756 35.2461H191.145V38.9663H195.16V35.2461H199.55V46.5118H195.161V42.7394H191.146V46.5118H186.757L186.756 35.2461ZM205.321 38.9821H201.458V35.2461H213.576V38.9821H209.711V46.5118H205.322L205.321 38.9821ZM215.5 35.2461H220.076L222.891 39.2046L225.704 35.2461H230.282V46.5118H225.911V40.9279L222.891 44.9335H222.815L219.794 40.9279V46.5118H215.5V35.2461ZM232.466 35.2461H236.856V42.7881H243.028V46.5118H232.466L232.466 35.2461Z" fill="black"/>
<path d="M214.802 86.4202H225.437L224.434 96.0299L214.802 98.2604V105.969L232.507 101.759L234.667 81.0003L234.877 79.0107H214.802V86.4202ZM214.802 71.4232H235.663L236.436 64.0136H214.802V71.4232Z" fill="white"/>
</g>
<g clip-path="url(#clip6_1045_183)">
<path d="M446 0.136597H516V70.1366H446V0.136597Z" fill="#F7DF1E"/>
<path d="M464.406 58.6336L469.762 55.3918C470.796 57.2241 471.736 58.7744 473.991 58.7744C476.153 58.7744 477.516 57.929 477.516 54.6401V32.2734H484.094V54.733C484.094 61.5463 480.1 64.6476 474.273 64.6476C469.011 64.6476 465.956 61.9228 464.406 58.6336ZM487.667 57.9287L493.023 54.8276C494.433 57.1303 496.265 58.8217 499.507 58.8217C502.233 58.8217 503.971 57.4589 503.971 55.5793C503.971 53.324 502.186 52.525 499.178 51.2098L497.534 50.5043C492.788 48.4844 489.64 45.9469 489.64 40.5903C489.64 35.6564 493.399 31.8972 499.273 31.8972C503.455 31.8972 506.462 33.3541 508.623 37.16L503.501 40.4495C502.373 38.4291 501.152 37.6303 499.272 37.6303C497.346 37.6303 496.124 38.8521 496.124 40.4495C496.124 42.4229 497.346 43.2221 500.165 44.4439L501.809 45.1485C507.401 47.5452 510.549 49.9884 510.549 55.4855C510.549 61.4066 505.898 64.6484 499.648 64.6484C493.54 64.6484 489.593 61.735 487.667 57.9287Z" fill="black"/>
</g>
<defs>
<linearGradient id="paint0_linear_1045_183" x1="1143.58" y1="1393.49" x2="6130.17" y2="6343.48" gradientUnits="userSpaceOnUse">
<stop stop-color="#387EB8"/>
<stop offset="1" stop-color="#366994"/>
</linearGradient>
<linearGradient id="paint1_linear_1045_183" x1="1254.62" y1="1661.86" x2="5254.18" y2="5424.74" gradientUnits="userSpaceOnUse">
<stop stop-color="#FFE052"/>
<stop offset="1" stop-color="#FFC331"/>
</linearGradient>
<clipPath id="clip0_1045_183">
<rect width="70" height="70" fill="white" transform="translate(0 280)"/>
</clipPath>
<clipPath id="clip1_1045_183">
<rect width="75" height="75" fill="white" transform="translate(57 118)"/>
</clipPath>
<clipPath id="clip2_1045_183">
<rect width="100" height="103" fill="white" transform="translate(35 395)"/>
</clipPath>
<clipPath id="clip3_1045_183">
<rect width="75" height="75" fill="white" transform="translate(174 493)"/>
</clipPath>
<clipPath id="clip4_1045_183">
<rect width="80" height="100" fill="white" transform="translate(348 469)"/>
</clipPath>
<clipPath id="clip5_1045_183">
<rect width="70" height="84" fill="white" transform="translate(180 35)"/>
</clipPath>
<clipPath id="clip6_1045_183">
<rect width="70" height="70" fill="white" transform="translate(446)"/>
</clipPath>
</defs>
</svg>
