<svg width="48" height="48" viewBox="0 0 48 48" fill="none" xmlns="http://www.w3.org/2000/svg">
<path d="M46 34C46 40.62 40.62 46 34 46V43C39 43 43 39 43 34H46ZM1.99999 14C1.99999 7.38 7.37999 2 14 2V5C8.99999 5 4.99999 9 4.99999 14H1.99999ZM16 8.64L6.81999 17.84C0.37999 24.28 0.37999 34.74 6.81999 41.18C13.26 47.62 23.72 47.62 30.16 41.18L44.3 27C45.28 26.06 45.28 24.48 44.3 23.5C44.0678 23.2672 43.7919 23.0825 43.4882 22.9564C43.1844 22.8304 42.8588 22.7655 42.53 22.7655C42.2011 22.7655 41.8755 22.8304 41.5718 22.9564C41.2681 23.0825 40.9922 23.2672 40.76 23.5L31.92 32.34L30.5 30.92L43.58 17.84C44.56 16.86 44.56 15.28 43.58 14.3C42.6 13.32 41 13.32 40 14.3L28.38 26L27 24.54L40.74 10.76C41.72 9.78 41.72 8.2 40.74 7.22C39.76 6.24 38.18 6.24 37.2 7.22L23.42 21L22 19.6L33 8.64C34 7.66 34 6.08 33 5.1C32 4.12 30.44 4.12 29.46 5.1L14.22 20.34C15.4133 21.8793 16.0045 23.8007 15.883 25.7446C15.7616 27.6884 14.9356 29.5213 13.56 30.9L12.14 29.48C13.2636 28.355 13.8947 26.83 13.8947 25.24C13.8947 23.65 13.2636 22.125 12.14 21L11.44 20.3L19.58 12.16C20.56 11.18 20.56 9.6 19.58 8.62C18.58 7.66 17 7.66 16 8.64Z" fill="#FFC700"/>
</svg>
